<?xml version="1.0" encoding="UTF-8" standalone="no"?>
<svg
   viewBox="0 0 14.602636 14.356544"
   preserveAspectRatio="xMidYMid meet"
   focusable="false"
   style="display:block"
   width="157.28125mm"
   height="95.27916mm"
   version="1.1"
   id="svg14"
   sodipodi:docname="colab.svg"
   inkscape:version="1.1.2 (0a00cf5339, 2022-02-04)"
   xmlns:inkscape="http://www.inkscape.org/namespaces/inkscape"
   xmlns:sodipodi="http://sodipodi.sourceforge.net/DTD/sodipodi-0.dtd"
   xmlns="http://www.w3.org/2000/svg"
   xmlns:svg="http://www.w3.org/2000/svg">
  <defs
     id="defs18" />
  <sodipodi:namedview
     id="namedview16"
     pagecolor="#ffffff"
     bordercolor="#666666"
     borderopacity="1.0"
     inkscape:pageshadow="2"
     inkscape:pageopacity="0.0"
     inkscape:pagecheckerboard="0"
     showgrid="false"
     inkscape:zoom="0.84453451"
     inkscape:cx="143.27419"
     inkscape:cy="431.00666"
     inkscape:window-width="1868"
     inkscape:window-height="1016"
     inkscape:window-x="1972"
     inkscape:window-y="27"
     inkscape:window-maximized="1"
     inkscape:current-layer="svg14"
     units="mm"
     height="95.27916mm"
     inkscape:document-units="mm" />
  <g
     id="g12"
     transform="translate(-4.7003952,-4.8209419)">
    <path
       d="M 4.54,9.46 2.19,7.1 a 6.93,6.93 0 0 0 0,9.79 L 4.55,14.53 A 3.59,3.59 0 0 1 4.54,9.46 Z"
       fill="#e8710a"
       id="path2" />
    <path
       d="m 2.19,7.1 2.35,2.36 a 3.59,3.59 0 0 1 5.08,0 l 1.71,-2.93 v 0 l -0.1,-0.08 v 0 A 6.93,6.93 0 0 0 2.19,7.1 Z"
       fill="#f9ab00"
       id="path4" />
    <path
       d="m 11.34,17.46 v 0 L 9.62,14.54 a 3.59,3.59 0 0 1 -5.08,0 L 2.19,16.9 a 6.93,6.93 0 0 0 9,0.65 l 0.11,-0.09"
       fill="#f9ab00"
       id="path6" />
    <path
       d="m 12,7.1 a 6.93,6.93 0 0 0 0,9.79 l 2.36,-2.36 A 3.5921024,3.5921024 0 1 1 19.44,9.45 L 21.81,7.1 A 6.93,6.93 0 0 0 12,7.1 Z"
       fill="#f9ab00"
       id="path8" />
    <path
       d="m 21.81,7.1 -2.35,2.36 a 3.5921024,3.5921024 0 0 1 -5.08,5.08 L 12,16.9 a 6.9331829,6.9331829 0 0 0 9.81,-9.8 z"
       fill="#e8710a"
       id="path10" />
  </g>
</svg>
